<?xml version="1.0" encoding="iso-8859-1"?>
<!-- Uploaded to: SVG Repo, www.svgrepo.com, Generator: SVG Repo Mixer Tools -->
<!DOCTYPE svg PUBLIC "-//W3C//DTD SVG 1.1//EN" "http://www.w3.org/Graphics/SVG/1.1/DTD/svg11.dtd">
<svg height="40" width="40" version="1.1" id="Capa_1" xmlns="http://www.w3.org/2000/svg" xmlns:xlink="http://www.w3.org/1999/xlink"
	 viewBox="0 0 74.683 74.683" xml:space="preserve">
<path style="fill:#DB5860;" d="M21.036,19.422h32.801c0.552,0,1-0.448,1-1c0-7.636-0.011-15.505-13.45-16.752
	C41.312,0.747,39.57,0,37.436,0s-3.876,0.747-3.95,1.67c-13.439,1.247-13.45,9.116-13.45,16.752
	C20.036,18.974,20.483,19.422,21.036,19.422z M37.436,3.494c14.779,0,15.375,6.067,15.399,13.928h-8.867
	c-0.072-1.526-1.832-2.761-3.986-2.761H34.89c-2.154,0-3.914,1.235-3.986,2.761h-8.867C22.06,9.562,22.657,3.494,37.436,3.494z
	 M33.346,10.13l0.391-0.677l-0.391-0.677h-1.359c-0.552,0-1-0.448-1-1s0.448-1,1-1h1.937c0.357,0,0.688,0.19,0.866,0.5l0.68,1.177
	h3.935l0.68-1.177c0.179-0.31,0.509-0.5,0.866-0.5h1.937c0.552,0,1,0.448,1,1s-0.448,1-1,1h-1.359l-0.391,0.677l0.391,0.677h1.359
	c0.552,0,1,0.448,1,1s-0.448,1-1,1h-1.937c-0.357,0-0.688-0.19-0.866-0.5l-0.68-1.177h-3.935l-0.68,1.177
	c-0.178,0.31-0.508,0.5-0.866,0.5h-1.937c-0.552,0-1-0.448-1-1s0.448-1,1-1H33.346z M17.169,24.357
	c0.022-0.76,0.09-3.072,1.69-3.677c1.585-0.597,3.248,1.061,3.565,1.4c0.377,0.403,0.356,1.036-0.047,1.414
	c-0.404,0.376-1.037,0.355-1.414-0.047c-0.495-0.524-1.199-0.938-1.401-0.894c0.005,0-0.347,0.28-0.394,1.863
	c-0.13,4.434,3.336,5.641,3.371,5.652c0.317,0.105,0.56,0.362,0.648,0.685l0.053,0.192c0.016,0.059,0.027,0.12,0.032,0.181
	c0.953,11.363,9.955,15.039,14.164,15.039S50.647,42.488,51.6,31.125c0.005-0.061,0.016-0.122,0.032-0.181l0.053-0.192
	c0.088-0.322,0.332-0.579,0.648-0.685c0.137-0.048,3.5-1.267,3.371-5.652c-0.047-1.589-0.401-1.865-0.405-1.868
	c-0.214-0.054-0.948,0.424-1.39,0.898c-0.377,0.404-1.01,0.425-1.414,0.047s-0.424-1.01-0.047-1.414
	c0.317-0.338,1.978-1.999,3.565-1.4c1.6,0.604,1.667,2.917,1.69,3.677c0.124,4.22-2.399,6.521-4.15,7.367
	c-1.162,11.335-10.072,16.44-16.117,16.44s-14.956-5.105-16.117-16.44C19.568,30.878,17.045,28.577,17.169,24.357z M23.556,48.105
	c-3.221,1.18-17.259,7.334-17.259,24.927c0,0.552-0.448,1-1,1s-1-0.448-1-1c0-19.967,17.341-26.39,19.146-27.003l-0.076-1.386
	c-0.03-0.551,0.393-1.023,0.944-1.053c0.542-0.026,1.022,0.392,1.053,0.944l0.38,6.945l4.486-2.105
	c0.499-0.234,1.095-0.021,1.33,0.48c0.235,0.5,0.02,1.095-0.48,1.33l-5.828,2.735c-0.135,0.063-0.28,0.095-0.425,0.095
	c-0.178,0-0.355-0.047-0.513-0.142c-0.285-0.17-0.467-0.472-0.485-0.804L23.556,48.105z M19.164,69.686v3.346c0,0.552-0.448,1-1,1
	s-1-0.448-1-1v-3.346c0-0.552,0.448-1,1-1S19.164,69.134,19.164,69.686z M70.387,73.032c0,0.552-0.448,1-1,1s-1-0.448-1-1
	c0-17.018-13.671-23.507-17.261-24.916l-0.271,4.952c-0.018,0.332-0.2,0.633-0.485,0.804c-0.158,0.094-0.335,0.142-0.513,0.142
	c-0.145,0-0.29-0.031-0.425-0.095l-5.828-2.735c-0.5-0.235-0.715-0.83-0.48-1.33c0.235-0.501,0.831-0.715,1.33-0.48l4.485,2.105
	l0.38-6.945c0.03-0.551,0.502-0.969,1.053-0.944c0.551,0.03,0.974,0.502,0.944,1.053l-0.076,1.383
	C53.955,47.001,70.387,53.709,70.387,73.032z M57.518,69.686v3.346c0,0.552-0.448,1-1,1s-1-0.448-1-1v-3.346c0-0.552,0.448-1,1-1
	S57.518,69.134,57.518,69.686z M39.314,24.342c-0.292,0-0.569,0.127-0.759,0.349c-0.083,0.097-0.136,0.211-0.177,0.329h-1.885
	c-0.041-0.118-0.094-0.232-0.177-0.329c-0.19-0.221-0.467-0.349-0.759-0.349H25.87c-0.268,0-0.525,0.108-0.713,0.299
	s-0.291,0.45-0.287,0.718c0.014,0.8,0.168,4.86,1.822,6.204c1.04,0.844,2.668,1.369,4.25,1.369c1.495,0,2.745-0.468,3.521-1.317
	c0.889-0.974,1.476-3.094,1.799-4.595h2.348c0.323,1.501,0.91,3.621,1.799,4.595c0.775,0.85,2.026,1.317,3.521,1.317
	c1.583,0,3.211-0.525,4.25-1.369c1.654-1.344,1.809-5.403,1.823-6.204c0.004-0.268-0.099-0.527-0.287-0.718
	s-0.445-0.299-0.713-0.299H39.314z M32.986,30.266c-0.387,0.423-1.131,0.666-2.044,0.666c-1.11,0-2.311-0.371-2.99-0.922
	c-0.498-0.405-0.887-2.056-1.028-3.668h7.435C34.036,27.893,33.513,29.689,32.986,30.266z M46.919,30.01
	c-0.679,0.551-1.88,0.922-2.99,0.922c-0.913,0-1.657-0.243-2.043-0.666c-0.526-0.576-1.05-2.373-1.373-3.924h7.435
	C47.807,27.955,47.417,29.606,46.919,30.01z M38.836,51.635v22.048c0,0.552-0.448,1-1,1s-1-0.448-1-1V51.635c0-0.552,0.448-1,1-1
	S38.836,51.083,38.836,51.635z M33.02,66.135c0,0.552-0.448,1-1,1h-9.333c-0.552,0-1-0.448-1-1s0.448-1,1-1h9.333
	C32.572,65.135,33.02,65.583,33.02,66.135z"/>
</svg>